<svg id="Layer_1" data-name="Layer 1" xmlns="http://www.w3.org/2000/svg" viewBox="0 0 211.1 22.79"><defs><style>.cls-1{fill:#002856;}</style></defs><title>Brunswick_logo_295C</title><path class="cls-1" d="M7.13,11.39c3,0,4.12.82,4.6,1.17a4.8,4.8,0,0,1,2,4.1c0,2.2-1.26,4.56-4.8,4.56-2.85,0-3.09-1.57-3.09-3.18V11.39H7.13ZM6,1.71a7.29,7.29,0,0,1,1.35-.15,4.48,4.48,0,0,1,4.56,4.8c0,2.7-1.6,4-4.89,4H5.86V1.72ZM0.11,0.54H0V1.05H0.11a2.09,2.09,0,0,1,2.34,2.4V19.39A2.18,2.18,0,0,1,.11,21.73H0v0.51H10.15A8.34,8.34,0,0,0,15.9,20.4a5.28,5.28,0,0,0,1.74-3.85c0-1.17-.45-5-6-5.85,3.7-1.07,4-3.9,4-4.76a4.74,4.74,0,0,0-1.41-3.37c-1.35-1.35-3.59-2-6.65-2H0.11Z"/><path class="cls-1" d="M30.23,1.56c4.34,0,4.47,4.33,4.47,4.83,0,4.18-3.17,4.58-6.18,4.59V1.71A6.41,6.41,0,0,1,30.23,1.56Zm-7.5-1H22.62V1.05h0.11c1.09,0,2.35.27,2.35,2.4V19.39a2,2,0,0,1-2.32,2.34H22.65v0.51h8.29V21.73H30.83c-1.56,0-2.32-.79-2.32-2.4V12a5.52,5.52,0,0,1,2.42.46,9.5,9.5,0,0,1,2.73,2.91l0.12,0.19,0.05,0.08L36.69,20l0.08,0.14h0l0.35,0.46L37.42,21a8.31,8.31,0,0,0,.76,1l0.23,0.27h5.24V21.75l-0.09,0c-1-.19-2.14-0.62-3.79-3.24l-0.05-.08,0,0v0l-1.91-3-0.16-.19c-1.19-1.74-2.24-3.24-4-3.86,3-.62,4.72-2.49,4.72-5.19a5.26,5.26,0,0,0-3.45-5A12.63,12.63,0,0,0,30.14.54H22.73Z"/><path class="cls-1" d="M67.84,0.54H59.63V1h0.1a2.11,2.11,0,0,1,2.35,2.4V14.7a6.43,6.43,0,0,1-.82,3.53,5.91,5.91,0,0,1-4.81,2.52,5.06,5.06,0,0,1-4.75-3.07,9.14,9.14,0,0,1-.56-3.49V3.46c0-2.09,1.2-2.34,2.32-2.4h0.1V0.54H45.29V1h0.1a2.11,2.11,0,0,1,2.35,2.4V14.31c0,7.84,6.41,8.24,7.7,8.24a7.46,7.46,0,0,0,6.68-3.8v3.5h5.83V21.74h-0.1c-1.16,0-2.35-.34-2.35-2.34V3.46c0-2.09,1.21-2.34,2.35-2.4h0.1V0.54H67.84Z"/><path class="cls-1" d="M96.27,0.54H90.22V1h0.1c1.14,0.07,2.35.31,2.35,2.31V16.84L78.06,0.54H72.64V1h0.12A3.48,3.48,0,0,1,75.45,2.6l0.1,0.11,0,0,0.81,0.92V19.39c0,2.27-1.51,2.32-2.32,2.34H74v0.51h6.1V21.74H80c-0.87,0-2.32-.08-2.32-2.34V5L93.42,22.79h0.51V3.37c0-2.17,1.47-2.26,2.35-2.31h0.1V0.54H96.27Z"/><path class="cls-1" d="M113.05,0h-0.38l0,0.08a0.77,0.77,0,0,1-.7.63,4.89,4.89,0,0,1-1.19-.26A9.86,9.86,0,0,0,107.82,0c-4.37,0-6.36,3-6.36,5.85,0,3.66,2.63,5.29,5.16,6.88,3,1.82,4.55,3.2,4.55,5.29a3.76,3.76,0,0,1-3.81,3.69,6.56,6.56,0,0,1-3.64-1.23,5.43,5.43,0,0,1-1.93-3.64V16.77h-0.49L101,22.49h0.51v-0.1a0.73,0.73,0,0,1,.76-0.8,4.4,4.4,0,0,1,1.66.56,8.93,8.93,0,0,0,3.39.64,6.23,6.23,0,0,0,4.74-1.7,5.93,5.93,0,0,0,2-4.56c0-3.43-2.39-4.94-5.42-6.85l-0.19-.12c-2.38-1.49-4.34-2.9-4.34-5.11A3.41,3.41,0,0,1,107.85,1c2.42,0,4.08,1.49,4.56,4.1l0,0.09h0.49L113.16,0h-0.11Z"/><path class="cls-1" d="M148.47,0.54h-5.94V1h0.1c1.33,0.12,1.82.57,1.82,1.63a10.25,10.25,0,0,1-.59,2.69l-3.69,11-3.67-12v0A0.75,0.75,0,0,0,136.38,4l0,0a6.24,6.24,0,0,1-.21-1.26,1.75,1.75,0,0,1,2-1.77h0.17V0.54l-9.11.35,0.67,0.16H130c1.76,0,2.39,1.75,2.73,2.71l-4.31,12.63L124.9,4.77a12.18,12.18,0,0,1-.42-2,1.62,1.62,0,0,1,1.81-1.72h0.1V0.54h-8.31V1h0.1c1.44,0.12,2.23.66,3.14,3.57L127,22.79h0.54l5.81-17.34,5.37,17.34h0.54l5.86-17.35c1.3-3.89,2-4.06,3.39-4.38l0.08,0V0.54h-0.11Z"/><path class="cls-1" d="M160.72,0.54h-8.15V1h0.1c0.87,0.05,2.32.15,2.32,2.31v16c0,2.27-1.51,2.32-2.32,2.34h-0.1v0.51h8.25V21.74h-0.1c-0.87,0-2.32-.08-2.32-2.34v-16c0-2.16,1.46-2.26,2.32-2.31h0.1V0.54h-0.11Z"/><path class="cls-1" d="M166,11.74c0,4.27,3,11,11.08,11a10.8,10.8,0,0,0,8.48-3.71l0,0V17.53l-0.19.25a9.12,9.12,0,0,1-7.09,3.64c-4.1,0-8.23-3.21-8.23-10.39,0-6.24,2.86-10,7.64-10a9,9,0,0,1,3.72.86A6.06,6.06,0,0,1,185,6.64V6.73h0.49l0.22-6.58H185.2v0.1a0.8,0.8,0,0,1-.76,1L184,1.17c-0.37-.09-2.21-0.63-2.56-0.75A12.11,12.11,0,0,0,178.13,0,11.82,11.82,0,0,0,166,11.74Z"/><path class="cls-1" d="M209.23,0.54h-6.8V1h0.1c0.95,0.08,1.43.42,1.43,1a3.11,3.11,0,0,1-.9,1.54l-6.24,6.91V3.4c0-2.2,1.47-2.29,2.35-2.35h0.1V0.54H191V1h0.15c0.92,0.06,2.3.15,2.3,2.34v16a2.06,2.06,0,0,1-2.35,2.34H191v0.51h8.31V21.74h-0.1c-0.88-.05-2.35-0.14-2.35-2.34V11.55l8.42,10.7h5.87v-0.5H211c-1.92-.27-2.38-0.8-3.91-2.57L207,19l0,0L199.3,9.32l5.11-5.7c1.5-1.44,2.33-2.24,4.84-2.56h0.09V0.54h-0.11Z"/></svg>